HIERARCHY
ROOT SpineBase
{
  OFFSET 0.000000 0.000000 0.000000
  CHANNELS 6 Xposition Yposition Zposition Zrotation Xrotation Yrotation
  JOINT SpineMid
  {
    OFFSET 0.000000 30.776609 0.000000
    CHANNELS 3 Zrotation Xrotation Yrotation
    JOINT SpineShoulder
    {
      OFFSET 0.125081 22.908967 -0.639571
      CHANNELS 3 Zrotation Xrotation Yrotation
      JOINT Neck
      {
        OFFSET 0.082506 7.591170 -0.498011
        CHANNELS 3 Zrotation Xrotation Yrotation
        JOINT Head
        {
          OFFSET -4.441715 13.029357 0.082900
          CHANNELS 3 Zrotation Xrotation Yrotation
          End Site
          {
            OFFSET 0 0 0
          }
        }
      }
      JOINT ShoulderLeft
      {
        OFFSET -17.506991 -4.250678 9.273756
        CHANNELS 3 Zrotation Xrotation Yrotation
        JOINT ElbowLeft
        {
          OFFSET -5.588133 -26.128829 1.343045
          CHANNELS 3 Zrotation Xrotation Yrotation
          JOINT WristLeft
          {
            OFFSET -1.519184 -21.075218 -6.284637
            CHANNELS 3 Zrotation Xrotation Yrotation
            JOINT HandLeft
            {
              OFFSET -0.933586 -9.053050 -0.765565
              CHANNELS 3 Zrotation Xrotation Yrotation
              JOINT HandTipLeft
              {
                OFFSET -0.605877 -9.218081 0.285562
                CHANNELS 3 Zrotation Xrotation Yrotation
                End Site
                {
                  OFFSET 0 0 0
                }
              }
              JOINT ThumbLeft
              {
                OFFSET -2.855990 0.146421 -1.951992
                CHANNELS 3 Zrotation Xrotation Yrotation
                End Site
                {
                  OFFSET 0 0 0
                }
              }
            }
          }
        }
      }
      JOINT ShoulderRight
      {
        OFFSET 13.343869 -3.130070 -6.265487
        CHANNELS 3 Zrotation Xrotation Yrotation
        JOINT ElbowRight
        {
          OFFSET 4.433475 -22.796450 -2.777193
          CHANNELS 3 Zrotation Xrotation Yrotation
          JOINT WristRight
          {
            OFFSET -8.291003 -20.709415 -9.727655
            CHANNELS 3 Zrotation Xrotation Yrotation
            JOINT HandRight
            {
              OFFSET -3.693344 -4.909659 -3.098841
              CHANNELS 3 Zrotation Xrotation Yrotation
              JOINT HandTipRight
              {
                OFFSET -5.653075 -4.222464 -5.793447
                CHANNELS 3 Zrotation Xrotation Yrotation
                End Site
                {
                  OFFSET 0 0 0
                }
              }
              JOINT ThumbRight
              {
                OFFSET 2.067701 -0.988806 -2.128038
                CHANNELS 3 Zrotation Xrotation Yrotation
                End Site
                {
                  OFFSET 0 0 0
                }
              }
            }
          }
        }
      }
    }
  }
  JOINT HipLeft
  {
    OFFSET -6.144356 -0.858810 -0.280650
    CHANNELS 3 Zrotation Xrotation Yrotation
    JOINT KneeLeft
    {
      OFFSET 0.831027 -36.359937 4.573149
      CHANNELS 3 Zrotation Xrotation Yrotation
      JOINT AnkleLeft
      {
        OFFSET 3.825439 -36.253346 7.973093
        CHANNELS 3 Zrotation Xrotation Yrotation
        JOINT FootLeft
        {
          OFFSET -1.237800 -8.056322 -5.260924
          CHANNELS 3 Zrotation Xrotation Yrotation
          End Site
          {
            OFFSET 0 0 0
          }
        }
      }
    }
  }
  JOINT HipRight
  {
    OFFSET 6.854011 2.452244 -6.029846
    CHANNELS 3 Zrotation Xrotation Yrotation
    JOINT KneeRight
    {
      OFFSET 7.995336 -34.180707 -2.355839
      CHANNELS 3 Zrotation Xrotation Yrotation
      JOINT AnkleRight
      {
        OFFSET 11.588069 -38.974124 10.027736
        CHANNELS 3 Zrotation Xrotation Yrotation
        JOINT FootRight
        {
          OFFSET -0.870274 -6.559758 -7.304065
          CHANNELS 3 Zrotation Xrotation Yrotation
          End Site
          {
            OFFSET 0 0 0
          }
        }
      }
    }
  }
}
MOTION
Frames: 8
Frame Time: 0.033333
-37.770831 82.794267 339.524466 -0.000000 0.000000 23.859872 -0.000000 0.000000 -23.859872 -0.000000 0.000000 0.000000 -0.000000 0.000000 0.000000 0.000000 0.000000 0.000000 -0.000000 0.000000 0.000000 -0.000000 0.000000 0.000000 -0.000000 0.000000 0.000000 -0.000000 0.000000 0.000000 0.000000 0.000000 0.000000 0.000000 0.000000 0.000000 -0.000000 0.000000 0.000000 -0.000000 0.000000 0.000000 -0.000000 0.000000 0.000000 -0.000000 0.000000 0.000000 0.000000 0.000000 0.000000 0.000000 0.000000 0.000000 -0.000000 0.000000 -23.859872 -0.000000 0.000000 0.000000 -0.000000 0.000000 0.000000 0.000000 0.000000 0.000000 -0.000000 0.000000 -23.859872 -0.000000 0.000000 0.000000 -0.000000 0.000000 0.000000 0.000000 0.000000 0.000000
-36.837914 82.784056 339.690891 -0.687082 -0.729850 24.053424 -0.146578 -0.103702 -24.075181 -0.006762 -0.091827 -0.024563 0.784777 0.976674 0.034203 0.000000 0.000000 0.000000 2.842226 -0.526599 0.454961 -0.872887 -2.352202 -0.473457 0.989663 -0.350793 0.304492 -0.654703 4.743035 -0.277168 0.000000 0.000000 0.000000 0.000000 0.000000 0.000000 0.784777 0.976674 0.034203 1.192077 -0.759076 -0.249986 -0.103095 -0.193327 0.290201 0.407450 -0.784853 0.260746 0.000000 0.000000 0.000000 0.000000 0.000000 0.000000 0.985188 1.584542 -24.090949 -0.516610 -1.552048 -0.243729 -1.636850 3.516468 1.518243 0.000000 0.000000 0.000000 0.924915 0.386371 -24.060919 -1.069594 0.338205 -0.172100 3.227428 -4.708218 -1.611863 0.000000 0.000000 0.000000
-35.972668 82.787203 339.823557 -1.260573 -1.362143 24.151978 -0.259086 -0.187669 -24.199219 -0.010499 -0.160755 -0.045376 1.428572 1.801982 0.051731 0.000000 0.000000 0.000000 5.193376 -0.989264 0.820751 -1.604161 -4.415183 -0.815245 2.311386 -1.534022 0.584200 -1.367852 9.941121 -0.671887 0.000000 0.000000 0.000000 0.000000 0.000000 0.000000 2.447547 1.623843 -0.137327 1.324401 -1.223670 -0.361738 -0.362066 -0.182186 0.495463 0.862127 -1.562610 0.433169 0.000000 0.000000 0.000000 0.000000 0.000000 0.000000 1.765166 2.984834 -24.241929 -0.866771 -2.919491 -0.468916 -2.910808 6.005567 2.857208 0.000000 0.000000 0.000000 1.628984 -0.729514 -24.532190 -2.607005 2.003380 0.083194 6.037594 -8.868377 -2.851920 0.000000 0.000000 0.000000
-35.175094 82.803708 339.922461 -1.722633 -1.899008 24.154100 -0.338253 -0.253436 -24.226947 -0.011658 -0.207990 -0.062015 1.935352 2.480011 0.058218 0.000000 0.000000 0.000000 7.086493 -1.413517 1.117556 -2.227964 -6.099532 -1.058716 3.880085 -3.468402 0.877272 -2.053831 15.468141 -1.197592 0.000000 0.000000 0.000000 0.000000 0.000000 0.000000 3.430100 2.240215 -0.231535 1.952867 -1.687419 -0.582305 -0.789703 0.031348 0.614670 1.338047 -2.300652 0.502225 0.000000 0.000000 0.000000 0.000000 0.000000 0.000000 2.335218 4.205729 -24.302817 -1.054699 -4.103847 -0.661664 -3.803028 7.556583 3.944211 0.000000 0.000000 0.000000 2.188703 -1.003353 -24.699434 -3.703623 2.844013 0.144093 8.428074 -12.362247 -3.756462 0.000000 0.000000 0.000000
-34.445192 82.833571 339.987606 -2.074945 -2.342321 24.058925 -0.384774 -0.302122 -24.154618 -0.010606 -0.234519 -0.074185 2.308190 3.014331 0.058051 0.000000 0.000000 0.000000 8.549555 -1.819118 1.361984 -2.770567 -7.345366 -1.231472 5.536183 -5.939390 1.218879 -2.573164 21.095633 -1.873204 0.000000 0.000000 0.000000 0.000000 0.000000 0.000000 4.258580 2.730113 -0.331476 2.552634 -2.045083 -0.834694 -1.392282 0.437829 0.650892 1.812176 -2.971275 0.457376 0.000000 0.000000 0.000000 0.000000 0.000000 0.000000 2.691534 5.251009 -24.265735 -1.083684 -5.107397 -0.811097 -4.301308 8.237866 4.734456 0.000000 0.000000 0.000000 2.584787 -1.217524 -24.748225 -4.654099 3.582353 0.209295 10.401989 -15.126044 -4.368809 0.000000 0.000000 0.000000
-33.782961 82.876792 340.018990 -2.318680 -2.693601 23.866191 -0.399233 -0.334386 -23.979735 -0.007610 -0.241068 -0.081700 2.436952 2.537517 -0.235712 0.000000 0.000000 0.000000 9.604287 -2.221383 1.566847 -3.250701 -8.115452 -1.354468 7.029727 -8.585273 1.612480 -2.719122 26.472754 -2.723312 0.000000 0.000000 0.000000 0.000000 0.000000 0.000000 4.936598 3.095923 -0.430616 3.119736 -2.291338 -1.123078 -2.169880 1.021211 0.611016 2.265932 -3.552364 0.293226 0.000000 0.000000 0.000000 0.000000 0.000000 0.000000 2.831426 6.122931 -24.124945 -0.956332 -5.932784 -0.909186 -4.394507 8.082655 5.203376 0.000000 0.000000 0.000000 2.819941 -1.373320 -24.675654 -5.452448 4.221417 0.272977 11.963072 -17.135165 -4.731085 0.000000 0.000000 0.000000
-33.204335 82.983626 340.039151 -2.519822 -3.064909 23.394687 -0.346777 -0.368331 -23.524795 0.012728 -0.232136 -0.084404 1.818303 2.373825 -0.382607 0.000000 0.000000 0.000000 10.279432 -2.804109 1.803708 -3.657364 -7.709926 -1.552566 8.151994 -14.100871 2.734971 0.400824 36.180718 -5.888473 0.000000 0.000000 0.000000 0.000000 0.000000 0.000000 5.815562 3.490613 -0.589018 3.166441 -2.521474 -1.313107 -2.795651 1.934500 0.204393 2.382815 -4.083416 0.371216 0.000000 0.000000 0.000000 0.000000 0.000000 0.000000 2.723220 6.934220 -23.707517 -0.466734 -6.528988 -0.897172 -4.076336 6.919489 5.276685 0.000000 0.000000 0.000000 3.111311 -1.454295 -24.319128 -6.313655 4.893059 0.370518 14.668861 -22.357599 -5.710454 0.000000 0.000000 0.000000
-32.638568 83.070863 339.997348 -2.465151 -3.260228 22.987571 -0.262670 -0.341865 -23.116067 0.027218 -0.172189 -0.077787 0.828962 1.821172 -0.561401 0.000000 0.000000 0.000000 10.251933 -3.480295 2.005438 -4.007070 -6.675368 -1.664518 5.286659 -16.035225 3.289691 4.839511 44.136789 -8.996824 0.000000 0.000000 0.000000 0.000000 0.000000 0.000000 6.190479 3.607442 -0.686952 3.352133 -2.496913 -1.612093 -3.707520 3.205072 -0.391873 2.320381 -4.308730 0.146455 0.000000 0.000000 0.000000 0.000000 0.000000 0.000000 2.150036 7.520517 -23.334781 0.279256 -6.825105 -0.791384 -3.042569 4.374505 4.855697 0.000000 0.000000 0.000000 2.828337 -1.395746 -23.968777 -6.616917 5.427160 0.440258 13.090806 -17.556592 -4.236584 0.000000 0.000000 0.000000
